<?xml version="1.0" encoding="UTF-8"?>
<!DOCTYPE svg PUBLIC "-//W3C//DTD SVG 1.1//EN" "http://www.w3.org/Graphics/SVG/1.1/DTD/svg11.dtd">
<!-- Creator: CorelDRAW -->
<svg xmlns="http://www.w3.org/2000/svg" xml:space="preserve" width="105.266mm" height="80.1855mm" version="1.1" style="shape-rendering:geometricPrecision; text-rendering:geometricPrecision; image-rendering:optimizeQuality; fill-rule:evenodd; clip-rule:evenodd"
viewBox="0 0 8513.45 6485.04"
 xmlns:xlink="http://www.w3.org/1999/xlink"
 xmlns:xodm="http://www.corel.com/coreldraw/odm/2003">
 <defs>
  <style type="text/css">
   <![CDATA[
    .fil0 {fill:#086B44}
    .fil1 {fill:#00C700}
   ]]>
  </style>
 </defs>
 <g id="Layer_x0020_1">
  <metadata id="CorelCorpID_0Corel-Layer"/>
  <g id="_2553612568976">
   <g id="_2444534254944">
    <path class="fil0" d="M3644.49 4173.98c-109.57,7.43 -1354.4,-224.2 -1420.12,-202.64 -33.01,10.71 -153.57,181.98 -185.54,223.75 -85.64,112.1 -15.62,119.09 130.38,203.53l1174.51 666.8c69.73,38.5 64.51,34.49 104.36,104.52 52.33,91.73 94.71,169.48 150.31,267.91 95.3,168.88 196.1,351.61 293.63,523.02 37.32,65.41 274,506.22 303.28,521.69 68.69,13.98 145.25,-34.49 203.68,-60.5 199.81,-88.46 170.67,-53.22 124.44,-363.35 -9.96,-67.2 -23.94,-164.14 -38.65,-233.71l-73.59 -479.77c-12.34,-103.03 -71.36,-406.17 -69.58,-475.6 74.04,-60.07 180.93,-113.74 324.41,-231.78 108.98,-89.8 202.04,-184.06 293.92,-276.08 192.98,-193.43 373.31,-372.13 565.55,-564.81 564.07,-565.7 1123.22,-1134.37 1701.11,-1689.37 181.97,-174.99 385.65,-374.95 554.54,-575.36 246.5,-292.58 530.32,-662.93 663.53,-1025.39 50.99,-138.71 119.39,-318.75 11.45,-438.88 -176.92,-196.84 -684.93,87.71 -831.38,177.66 -400.82,246.2 -882.51,698.02 -1202.46,1057.66 -204.87,230.44 -370.49,383.57 -557.96,572.23l-1695.16 1695.3c-120.42,119.68 -307.59,301.96 -407.8,438 -39.4,53.37 -76.27,112.98 -116.86,165.17l-0.02 0.01z"/>
    <path class="fil0" d="M6118.68 1407.79l-546.96 -124.73c-193.28,-37.76 -371.98,-89.21 -560.94,-126.52 -92.62,-18.29 -187.48,-38.96 -279.8,-62l-838.51 -188.37c-181.97,-43.41 -372.87,-88.01 -559,-124.89 -141.54,-28.1 -433.38,-125.93 -574.18,-91.44 -236.69,57.98 -407.96,392.49 -64.67,581.01l656.98 359.64c133.81,69.73 284.41,160.42 439.78,242.19 137.97,72.7 297.35,158.63 442.45,242.18l662.93 362.47c135,76.56 102.74,74.04 203.39,-26.91 118.35,-118.79 228.51,-228.37 341.8,-341.95 115.67,-115.82 226.14,-226.28 341.95,-341.8l256.46 -256.46c57.09,-57.39 70.47,-53.38 78.35,-102.44l-0.01 0.01z"/>
    <path class="fil0" d="M6002.14 3511.5c6.24,43.56 678.39,1224.61 760.89,1373.14 134.7,242.78 252.75,457.9 385.06,689.25 56.94,99.46 128.45,258.54 206.95,324.1 115.07,96.19 293.03,79.84 388.48,-25.57 118.35,-130.53 97.38,-226.43 56.19,-409 -16.2,-71.21 -32.71,-148.67 -48.02,-219.29 -16.51,-75.97 -36.87,-147.64 -48.61,-214.09l-96.78 -436.06c-40.29,-148.23 -60.51,-294.37 -97.08,-447.79 -106.75,-446.47 -186.13,-863.94 -293.03,-1307.87 -17.7,-72.85 -32.12,-141.39 -48.32,-217.81 -11.74,-55.01 -26.91,-180.49 -56.94,-218.85 -79.54,63.63 -192.69,191.04 -275.94,273.41 -91.74,90.69 -188.22,187.48 -280.4,280.4 -93.51,93.96 -507.27,497.9 -552.46,556.04l0.02 0z"/>
    <path class="fil0" d="M3401.86 658.48l369.29 79.99c87.12,19.77 286.79,78.64 372.28,79.69 83.84,-129.05 185.54,-81.32 -3.87,-270.88 -82.81,-82.96 -158.64,-159.24 -241.45,-242.93 -94.7,-95.6 -103.33,-53.22 -265.38,108.98 -40.89,41.04 -80.29,80.13 -118.79,118.64 -29.58,29.74 -108.83,95.16 -112.09,126.53l0 -0.01z"/>
    <path class="fil0" d="M7861.13 5087.57c55.3,-39.54 124.29,-118.2 173.65,-167.85 250.66,-253.04 260.77,-217.81 103.77,-374.8 -60.96,-60.96 -115.08,-115.22 -175.88,-175.58 -47.13,-46.83 -123.25,-168.59 -209.19,-81.92 -80.28,80.88 -68.23,42.52 -24.97,241.15 17.84,81.63 106.15,520.65 132.62,559.01l0.01 -0.01z"/>
    <path class="fil0" d="M4851.41 975.9c43.86,31.96 455.09,112.55 550.24,132.31 189.85,39.55 161.16,65.27 245.16,-20.22 68.1,-69.58 0,-108.24 -86.53,-195.06l-256.31 -256.61c-40.74,-39.85 -71.36,-42.37 -113.88,-4.46l-338.67 344.03z"/>
    <path class="fil0" d="M7533.6 3627.91l332.88 -320.24c61.85,-75.52 -19.92,-127.71 -93.52,-201.75 -57.39,-57.83 -108.53,-109.27 -166.06,-166.36 -36.13,-35.68 -115.37,-154.92 -191.34,-92.03 -65.71,54.41 -37.62,113.29 -4.61,249.48 20.07,82.81 35.68,186.58 58.42,264.79 24.08,82.36 34.35,198.77 64.23,266.12z"/>
   </g>
  </g>
  <path class="fil1" d="M4681.67 3866.14c0,-343.55 -55.03,-630.21 -200.91,-914.65 -95.34,-185.92 -197.21,-322.26 -328.06,-485.74l-374.15 -357.36c-35.11,-28.84 -67.98,-51.81 -104.02,-78.85 -37.41,-28.06 -66.58,-49.7 -106.59,-76.31 -572.04,-380.3 -1175.62,-588.51 -1861.79,-689.35 -104.31,-15.32 -224.28,-31.19 -334.56,-31.19l0 -850.37 -1371.59 1367.03 0 4.55 1369.3 1373.86 2.29 -861.8 299.24 29.92c474.67,59.9 854.45,176.54 1287.87,358.04 156.86,65.69 290.87,139.53 433.16,225.2 34.43,20.74 67.74,37.99 102.96,61.63l286.89 206.89c95.16,75.25 270.54,236.53 339.49,318.87 185.46,221.52 270.55,342.57 389.81,597.73 25.27,54.08 83.15,187.25 88.36,249.95 28.73,-21.04 12.94,-4.33 34.82,-93.18 10.19,-41.36 15.12,-68.88 22.65,-114.52 11.95,-72.37 24.82,-150.2 24.82,-240.35z"/>
 </g>
</svg>
