<?xml version="1.0" encoding="UTF-8"?>
<!DOCTYPE svg PUBLIC "-//W3C//DTD SVG 1.1//EN" "http://www.w3.org/Graphics/SVG/1.1/DTD/svg11.dtd">
<!-- Creator: CorelDRAW -->
<svg xmlns="http://www.w3.org/2000/svg" xml:space="preserve" width="96.0607mm" height="80.1855mm" version="1.1" style="shape-rendering:geometricPrecision; text-rendering:geometricPrecision; image-rendering:optimizeQuality; fill-rule:evenodd; clip-rule:evenodd"
viewBox="0 0 8257.6 6892.93"
 xmlns:xlink="http://www.w3.org/1999/xlink"
 xmlns:xodm="http://www.corel.com/coreldraw/odm/2003">
 <defs>
  <style type="text/css">
   <![CDATA[
    .fil0 {fill:#850000}
    .fil1 {fill:#FF2121}
   ]]>
  </style>
 </defs>
 <g id="Layer_x0020_1">
  <metadata id="CorelCorpID_0Corel-Layer"/>
  <g id="_2553727617120">
   <g id="_2444534254944">
    <path class="fil0" d="M3082.4 4436.51c-116.46,7.9 -1439.59,-238.3 -1509.44,-215.39 -35.08,11.38 -163.23,193.42 -197.21,237.82 -91.03,119.15 -16.6,126.58 138.58,216.33l1248.39 708.74c74.12,40.93 68.57,36.65 110.93,111.09 55.63,97.5 100.66,180.14 159.76,284.76 101.3,179.51 208.43,373.72 312.1,555.92 39.66,69.53 291.23,538.06 322.36,554.5 73.01,14.86 154.39,-36.65 216.5,-64.31 212.38,-94.03 181.41,-56.57 132.26,-386.2 -10.58,-71.43 -25.44,-174.46 -41.08,-248.41l-78.22 -509.95c-13.12,-109.51 -75.85,-431.72 -73.95,-505.52 78.7,-63.84 192.31,-120.89 344.81,-246.36 115.83,-95.45 214.75,-195.63 312.4,-293.45 205.11,-205.6 396.79,-395.54 601.12,-600.34 599.54,-601.28 1193.86,-1205.72 1808.11,-1795.62 193.42,-186 409.91,-398.53 589.42,-611.54 262,-310.99 563.67,-704.62 705.26,-1089.88 54.2,-147.43 126.9,-338.8 12.17,-466.48 -188.05,-209.22 -728.01,93.23 -883.67,188.83 -426.03,261.69 -938.02,741.92 -1278.09,1124.18 -217.75,244.93 -393.79,407.69 -593.05,608.23l-1801.78 1801.93c-128,127.21 -326.94,320.95 -433.45,465.55 -41.88,56.73 -81.06,120.09 -124.21,175.56l-0.03 0.01z"/>
    <path class="fil0" d="M5712.22 1496.34l-581.36 -132.58c-205.43,-40.14 -395.38,-94.82 -596.23,-134.48 -98.44,-19.44 -199.27,-41.41 -297.4,-65.9l-891.25 -200.21c-193.42,-46.14 -396.32,-93.54 -594.16,-132.74 -150.44,-29.87 -460.64,-133.85 -610.29,-97.19 -251.58,61.63 -433.62,417.18 -68.74,617.55l698.3 382.26c142.22,74.12 302.3,170.51 467.44,257.42 146.64,77.27 316.05,168.61 470.27,257.41l704.62 385.27c143.49,81.38 109.2,78.7 216.18,-28.6 125.79,-126.26 242.89,-242.73 363.29,-363.46 122.94,-123.11 240.36,-240.51 363.46,-363.29l272.59 -272.59c60.68,-61 74.9,-56.74 83.28,-108.88l-0.01 0.01z"/>
    <path class="fil0" d="M5588.34 3732.37c6.63,46.3 721.06,1301.63 808.75,1459.5 143.17,258.05 268.65,486.7 409.28,732.6 60.52,105.72 136.53,274.8 219.97,344.49 122.31,102.24 311.46,84.86 412.91,-27.18 125.79,-138.74 103.51,-240.67 59.73,-434.72 -17.22,-75.69 -34.76,-158.02 -51.04,-233.09 -17.54,-80.75 -39.19,-156.92 -51.67,-227.55l-102.87 -463.48c-42.83,-157.55 -64.32,-312.89 -103.19,-475.96 -113.46,-474.55 -197.84,-918.28 -311.46,-1390.13 -18.81,-77.43 -34.14,-150.28 -51.36,-231.51 -12.48,-58.47 -28.6,-191.84 -60.52,-232.61 -84.54,67.64 -204.81,203.06 -293.29,290.6 -97.51,96.4 -200.06,199.27 -298.04,298.03 -99.39,99.87 -539.17,529.22 -587.21,591.01l0.02 0z"/>
    <path class="fil0" d="M2824.51 699.9l392.52 85.02c92.6,21.02 304.83,83.59 395.69,84.7 89.12,-137.17 197.21,-86.44 -4.11,-287.91 -88.02,-88.18 -168.62,-169.25 -256.63,-258.21 -100.65,-101.62 -109.83,-56.57 -282.07,115.83 -43.46,43.62 -85.33,85.17 -126.26,126.1 -31.45,31.61 -115.67,101.14 -119.14,134.49l0 -0.01z"/>
    <path class="fil0" d="M7564.26 5407.57c58.78,-42.03 132.11,-125.63 184.57,-178.41 266.42,-268.95 277.17,-231.51 110.3,-398.38 -64.79,-64.79 -122.32,-122.47 -186.94,-186.62 -50.09,-49.77 -131.01,-179.2 -222.35,-87.07 -85.33,85.97 -72.53,45.2 -26.55,256.31 18.96,86.76 112.83,553.4 140.96,594.17l0.01 -0.01z"/>
    <path class="fil0" d="M4365.23 1037.28c46.62,33.97 483.71,119.63 584.84,140.63 201.79,42.04 171.3,69.37 260.58,-21.49 72.38,-73.95 0,-115.04 -91.97,-207.32l-272.43 -272.75c-43.3,-42.35 -75.84,-45.04 -121.04,-4.74l-359.98 365.67z"/>
    <path class="fil0" d="M7216.13 3856.09l353.81 -340.39c65.74,-80.27 -21.17,-135.74 -99.4,-214.44 -61,-61.46 -115.35,-116.14 -176.51,-176.82 -38.4,-37.93 -122.63,-164.66 -203.38,-97.82 -69.84,57.84 -39.98,120.42 -4.9,265.17 21.33,88.02 37.93,198.32 62.1,281.44 25.6,87.54 36.51,211.27 68.27,282.86z"/>
   </g>
  </g>
  <path class="fil1" d="M422.92 1457.77c345.83,-117.25 653.15,-159.7 989.26,-109.93 219.69,32.53 391.7,88.54 600.92,164.46l487.42 254.65c41.01,25.49 75.35,50.73 114.87,77.8 41.02,28.08 72.75,50.06 113.19,81.24 578.05,446.03 993.64,982.54 1329.32,1638.84 51.03,99.77 107.94,215.11 145.59,326.13l856 -290.23 -907.96 1847.21 -4.59 1.56 -1850.27 -909.46 866.72 -296.43 -132.25 -291.01c-222.3,-457.36 -469.33,-799.85 -799.94,-1174.19 -119.66,-135.48 -239.73,-245.17 -374.53,-359.17 -32.62,-27.58 -61.35,-55.22 -97.17,-82.61l-306.16 -218.17c-108.23,-70.11 -330.43,-191.61 -436.85,-232.91 -286.28,-111.1 -437.17,-155.43 -734.71,-188.4 -63.07,-6.98 -216.87,-19.79 -281.77,-3.64 11.37,-36.1 -0.06,-14.5 81.9,-66.86 38.16,-24.37 64.18,-38.73 107.55,-61.88 68.77,-36.72 142.72,-76.24 233.47,-107.01z"/>
 </g>
</svg>
