<?xml version="1.0" encoding="UTF-8"?>
<!DOCTYPE svg PUBLIC "-//W3C//DTD SVG 1.1//EN" "http://www.w3.org/Graphics/SVG/1.1/DTD/svg11.dtd">
<!-- Creator: CorelDRAW -->
<svg xmlns="http://www.w3.org/2000/svg" xml:space="preserve" width="88.1349mm" height="74.4371mm" version="1.1" style="shape-rendering:geometricPrecision; text-rendering:geometricPrecision; image-rendering:optimizeQuality; fill-rule:evenodd; clip-rule:evenodd"
viewBox="0 0 6951.18 5870.84"
 xmlns:xlink="http://www.w3.org/1999/xlink"
 xmlns:xodm="http://www.corel.com/coreldraw/odm/2003">
 <defs>
  <style type="text/css">
   <![CDATA[
    .fil0 {fill:#850000}
    .fil1 {fill:#FF2121}
   ]]>
  </style>
 </defs>
 <g id="Layer_x0020_1">
  <metadata id="CorelCorpID_0Corel-Layer"/>
  <g id="_2554130689072">
   <g id="_2444542182768">
    <path class="fil0" d="M2244.99 4485.85c0.88,34.29 271.71,736.63 321.3,862.76 18.57,47.07 34.95,89.23 54.17,140.99 17.04,45.76 47.94,108.78 53.95,151.48 -1.2,1.42 -3.05,1.74 -3.6,4.26 -3.38,14.09 -65.09,46.3 -81.47,53.18 -123.41,52.31 -241.36,6.33 -336.15,-66.4 -64.65,-49.69 -99.6,-81.69 -178.99,-108.89 -71.42,-24.47 -215.26,-50.01 -222.68,41.07 -8.42,102.44 109.76,74.04 186.75,101.67 59.85,21.63 122.22,83.88 173.87,119.05 133.01,90.64 300.33,110.08 464.15,35.38 144.38,-65.75 181.18,-201.71 406.05,-169.82 186.54,26.43 394.81,423.96 822.69,82.46 125.92,-100.47 277.18,-132.04 420.24,-15.73 118.06,95.99 229.12,169.6 427.78,142.95 186.97,-25 238.74,-157.59 380.06,-201.27 198.76,-61.49 281.11,63.02 404.63,140.44 138.7,86.93 318.89,88.24 466.01,8.52 124.72,-67.61 199.41,-206.41 402.23,-154.1 151.91,39.21 184.67,163.81 384.2,203.67 33.64,6.66 91.74,15.73 124.28,-0.65 32,-15.95 48.6,-64.65 26.97,-102.55 -34.29,-59.85 -101.99,-9.39 -217.77,-75.9 -60.18,-34.62 -109.42,-87.37 -171.68,-122.86 -83.54,-47.61 -133.35,-50.56 -237.86,-56.57 -1.42,-39.21 236.66,-637.24 281.43,-758.81 19.23,-52.53 88.24,-209.79 93.82,-254.57l-535.03 -394.81c-111.61,-80.6 -1578.21,-1171.73 -1614.36,-1180.9l-0.65 2770.69c-33.64,-0.99 -116.42,-74.81 -143.94,-95.56l-3.17 -2672.61c-29.81,0.65 -513.08,367.05 -539.83,387.16l-1471.84 1084.14c-43.9,34.4 -102,67.49 -135.53,102.11l0 0.02z"/>
    <path class="fil0" d="M3163.02 1937.29l0.88 1678.8c28.07,-4.15 605.25,-438.16 643.92,-466.22l483.47 -356.14c221.81,-156.28 117.74,-164.14 508.82,116.85l644.78 475.29c27.74,21.07 296.51,228.14 325.12,229.35l0.65 -1677.93c0,-141.64 -81.91,-220.93 -228.46,-220.93l-2156.39 0c-79.5,0 -119.91,12.78 -163.7,57.33 -42.16,42.7 -59.09,82.78 -59.09,163.6l-0.01 0zm1886.08 21.08l0 370.99c0,71.09 31.45,96.54 98.18,96.54l364.11 0c67.93,0 99.16,-24.13 99.16,-96.54l0 -370.99c0,-67.28 -24.47,-93.37 -92.18,-93.37l-378.09 0c-65.75,0 -91.2,30.69 -91.2,93.37zm-864.52 6.98l0 364.01c0,68.58 31.45,96.54 97.42,96.54l363.68 0c69.46,0 99.27,-22.49 99.27,-96.54l0 -370.99c0,-68.59 -22.82,-93.37 -91.85,-93.37l-378.09 0c-69.67,0 -90.42,32.65 -90.42,100.36l-0.01 -0.01zm-867.03 -6.98l0 370.99c0,67.82 30.36,96.54 96.33,96.54l370.99 0c66.07,0 92.17,-25.88 92.17,-96.54l0 -370.99c0,-69.46 -22.82,-93.37 -92.17,-93.37l-378.09 0c-65.96,0 -89.23,29.7 -89.23,93.37z"/>
    <path class="fil0" d="M3716.4 1565.31l1501 1.32c11.46,-115.44 1.85,-280.89 1.85,-399.5 0,-115.76 17.9,-292.58 -31.78,-373.06 -67.06,-108.78 -165.46,-95.78 -310.38,-95.78l-812.1 0c-148.09,0 -244.3,-16.27 -317.04,88.9 -56.79,82.02 -34.07,259.6 -34.07,372.96 0,114.89 -10.92,298.59 2.51,405.17l0.02 -0.01z"/>
    <path class="fil0" d="M4270.32 38.43l1.31 505.22c51,4.15 358.65,7.75 388.47,-4.04 7.64,-68.47 1.42,-327.63 1.74,-429.64 0.22,-91.08 -8.52,-67.6 -29.48,-108.67 -65.1,0.22 -130.95,-0.65 -196.37,-0.65 -32.22,0 -66.51,-1.2 -98.4,-0.32 -41.82,1.09 -56.79,7.31 -67.27,38.11z"/>
    <path class="fil0" d="M5202.11 2277.48l260.68 1.42c6.89,-38.23 8.52,-235.57 -1.2,-267.46l-258.4 -0.44c-8.73,32.55 -7.1,229.23 -1.09,266.48l0.01 0z"/>
    <path class="fil0" d="M4598.38 2259.68l-2.4 -238.4 -252.5 0 -1.63 7.1 0 240.05c60.93,0 208.04,11.36 256.53,-8.74l0 -0.01z"/>
    <path class="fil0" d="M3721.96 2015.27l-245.51 -4.26 -3.16 257.42c61.38,0 197.23,8.3 248.57,-4.48l0.1 -248.68z"/>
    <path class="fil0" d="M4270.32 38.43c-12.23,16.6 -11.58,15.18 -11.36,57.45l9.5 455.08c23.91,10.48 378.85,9.39 396.76,-1.63 15.73,-15.29 6.89,-362.04 6.99,-432.37 0.11,-59.41 5.24,-93.71 -39.86,-115.65 20.97,41.07 29.71,17.59 29.49,108.67 -0.32,102 5.9,361.17 -1.74,429.64 -29.81,11.8 -337.46,8.19 -388.47,4.04l-1.31 -505.22 -0.01 0z"/>
    <path class="fil0" d="M4598.38 2259.68c-48.49,20.1 -195.6,8.74 -256.53,8.74l0 -240.05 1.63 -7.1 252.5 0c-8.85,-19 9.28,-6.01 -19.99,-11.68l-241.58 1.96c-5.57,17.15 -12.78,248.35 2.62,262.87 33.53,17.47 193.52,6.55 246.06,6.55 25.56,-8.63 6.12,6.55 15.28,-21.29z"/>
    <path class="fil0" d="M3721.96 2015.27l-0.1 248.68c-51.33,12.78 -187.19,4.48 -248.57,4.48l3.16 -257.42c-14.42,7.86 -9.39,1.53 -13.64,17.37 0,49.14 -10.27,215.26 6.66,244.63 1.42,0.99 3.71,0.65 4.59,2.73l227.38 5.68c56.34,-5.35 31.12,-75.57 32.87,-204.11 0.99,-81.15 2.84,-51.22 -12.34,-62.03l-0.01 0z"/>
   </g>
  </g>
  <path class="fil1" d="M388.02 1110.8c317.29,-107.58 599.26,-146.52 907.64,-100.86 201.57,29.84 359.38,81.24 551.34,150.89l447.21 233.64c37.63,23.38 69.13,46.55 105.39,71.38 37.64,25.77 66.75,45.93 103.85,74.54 530.36,409.23 911.66,901.47 1219.64,1503.62 46.82,91.54 99.04,197.36 133.57,299.22l785.37 -266.28 -833.05 1694.8 -4.21 1.43 -1697.61 -834.43 795.21 -271.97 -121.34 -267c-203.96,-419.63 -430.61,-733.85 -733.94,-1077.31 -109.79,-124.3 -219.95,-224.94 -343.63,-329.53 -29.93,-25.3 -56.29,-50.67 -89.15,-75.79l-280.9 -200.17c-99.3,-64.33 -303.17,-175.8 -400.81,-213.69 -262.66,-101.93 -401.1,-142.6 -674.09,-172.85 -57.87,-6.4 -198.98,-18.16 -258.52,-3.34 10.43,-33.13 -0.06,-13.31 75.15,-61.34 35.01,-22.36 58.88,-35.53 98.67,-56.78 63.1,-33.69 130.95,-69.95 214.2,-98.18z"/>
 </g>
</svg>
