<?xml version="1.0" encoding="UTF-8"?>
<!DOCTYPE svg PUBLIC "-//W3C//DTD SVG 1.1//EN" "http://www.w3.org/Graphics/SVG/1.1/DTD/svg11.dtd">
<!-- Creator: CorelDRAW -->
<svg xmlns="http://www.w3.org/2000/svg" xml:space="preserve" width="96.3574mm" height="74.4371mm" version="1.1" style="shape-rendering:geometricPrecision; text-rendering:geometricPrecision; image-rendering:optimizeQuality; fill-rule:evenodd; clip-rule:evenodd"
viewBox="0 0 7242.81 5595.15"
 xmlns:xlink="http://www.w3.org/1999/xlink"
 xmlns:xodm="http://www.corel.com/coreldraw/odm/2003">
 <defs>
  <style type="text/css">
   <![CDATA[
    .fil0 {fill:#086B44}
    .fil1 {fill:#00C700}
   ]]>
  </style>
 </defs>
 <g id="Layer_x0020_1">
  <metadata id="CorelCorpID_0Corel-Layer"/>
  <g id="_2553712299520">
   <g id="_2444542182768">
    <path class="fil0" d="M2757.62 4275.2c0.83,32.68 258.95,702.04 306.21,822.25 17.69,44.86 33.31,85.04 51.62,134.37 16.24,43.61 45.69,103.67 51.42,144.36 -1.14,1.35 -2.91,1.66 -3.44,4.06 -3.22,13.42 -62.03,44.13 -77.65,50.68 -117.61,49.86 -230.02,6.04 -320.37,-63.28 -61.61,-47.35 -94.92,-77.86 -170.59,-103.77 -68.07,-23.32 -205.15,-47.66 -212.22,39.14 -8.02,97.63 104.6,70.57 177.98,96.9 57.04,20.61 116.48,79.94 165.7,113.46 126.77,86.38 286.23,104.91 442.35,33.72 137.6,-62.66 172.67,-192.24 386.98,-161.85 177.78,25.19 376.27,404.05 784.06,78.59 120.01,-95.75 264.16,-125.84 400.51,-14.99 112.52,91.48 218.37,161.64 407.69,136.24 178.19,-23.83 227.53,-150.19 362.21,-191.82 189.43,-58.61 267.91,60.06 385.62,133.85 132.19,82.85 303.92,84.1 444.13,8.12 118.86,-64.43 190.05,-196.72 383.34,-146.86 144.78,37.37 176,156.12 366.16,194.11 32.06,6.35 87.43,15 118.45,-0.62 30.49,-15.2 46.32,-61.61 25.71,-97.74 -32.68,-57.04 -97.2,-8.95 -207.54,-72.33 -57.35,-33 -104.29,-83.27 -163.62,-117.09 -79.62,-45.38 -127.08,-48.19 -226.69,-53.92 -1.35,-37.37 225.54,-607.32 268.22,-723.17 18.33,-50.06 84.1,-199.93 89.41,-242.61l-509.9 -376.27c-106.37,-76.81 -1504.1,-1116.71 -1538.55,-1125.45l-0.62 2640.59c-32.06,-0.94 -110.95,-71.3 -137.18,-91.07l-3.02 -2547.11c-28.41,0.62 -488.99,349.82 -514.48,368.98l-1402.73 1033.23c-41.84,32.79 -97.21,64.32 -129.17,97.32l0 0.02z"/>
    <path class="fil0" d="M3632.54 1846.32l0.83 1599.96c26.75,-3.95 576.83,-417.59 613.68,-444.33l460.77 -339.41c211.4,-148.94 112.21,-156.44 484.93,111.37l614.51 452.97c26.44,20.08 282.59,217.43 309.86,218.58l0.62 -1599.14c0,-134.99 -78.06,-210.56 -217.73,-210.56l-2055.12 0c-75.77,0 -114.28,12.18 -156.01,54.64 -40.18,40.69 -56.31,78.89 -56.31,155.92l-0.01 0zm1797.52 20.09l0 353.57c0,67.75 29.98,92 93.57,92l347.01 0c64.74,0 94.51,-22.99 94.51,-92l0 -353.57c0,-64.12 -23.32,-88.99 -87.85,-88.99l-360.33 0c-62.66,0 -86.91,29.25 -86.91,88.99zm-823.92 6.65l0 346.91c0,65.36 29.98,92 92.85,92l346.6 0c66.2,0 94.61,-21.44 94.61,-92l0 -353.57c0,-65.36 -21.75,-88.99 -87.54,-88.99l-360.33 0c-66.4,0 -86.18,31.12 -86.18,95.65l-0.01 -0.01zm-826.32 -6.65l0 353.57c0,64.64 28.94,92 91.81,92l353.57 0c62.97,0 87.84,-24.66 87.84,-92l0 -353.57c0,-66.2 -21.75,-88.99 -87.84,-88.99l-360.34 0c-62.86,0 -85.04,28.31 -85.04,88.99z"/>
    <path class="fil0" d="M4159.93 1491.81l1430.52 1.26c10.92,-110.02 1.77,-267.7 1.77,-380.74 0,-110.32 17.06,-278.84 -30.29,-355.54 -63.91,-103.67 -157.69,-91.28 -295.81,-91.28l-773.96 0c-141.14,0 -232.83,-15.51 -302.15,84.73 -54.12,78.17 -32.47,247.41 -32.47,355.45 0,109.49 -10.41,284.56 2.39,386.14l0.02 -0.01z"/>
    <path class="fil0" d="M4687.84 36.63l1.25 481.49c48.6,3.95 341.81,7.39 370.22,-3.85 7.28,-65.26 1.35,-312.25 1.66,-409.47 0.21,-86.8 -8.12,-64.42 -28.1,-103.56 -62.04,0.21 -124.8,-0.62 -187.15,-0.62 -30.71,0 -63.39,-1.14 -93.78,-0.31 -39.86,1.04 -54.12,6.97 -64.11,36.32z"/>
    <path class="fil0" d="M5575.88 2170.53l248.44 1.35c6.56,-36.43 8.12,-224.51 -1.14,-254.9l-246.27 -0.42c-8.32,31.02 -6.76,218.47 -1.04,253.96l0.01 0z"/>
    <path class="fil0" d="M5000.5 2153.57l-2.29 -227.2 -240.64 0 -1.56 6.76 0 228.78c58.07,0 198.27,10.82 244.49,-8.33l0 -0.01z"/>
    <path class="fil0" d="M4165.23 1920.64l-233.98 -4.06 -3.01 245.33c58.49,0 187.97,7.91 236.89,-4.27l0.1 -237z"/>
    <path class="fil0" d="M4687.84 36.63c-11.66,15.82 -11.03,14.47 -10.82,54.75l9.06 433.71c22.79,9.99 361.06,8.95 378.13,-1.56 14.99,-14.57 6.56,-345.04 6.66,-412.07 0.11,-56.62 5,-89.3 -37.99,-110.22 19.99,39.14 28.32,16.76 28.1,103.56 -0.31,97.21 5.62,344.21 -1.66,409.47 -28.41,11.24 -321.61,7.81 -370.22,3.85l-1.25 -481.49 -0.01 0z"/>
    <path class="fil0" d="M5000.5 2153.57c-46.21,19.15 -186.41,8.33 -244.49,8.33l0 -228.78 1.56 -6.76 240.64 0c-8.43,-18.11 8.84,-5.73 -19.05,-11.13l-230.23 1.87c-5.31,16.34 -12.18,236.68 2.5,250.53 31.95,16.65 184.44,6.24 234.5,6.24 24.36,-8.22 5.83,6.25 14.57,-20.29z"/>
    <path class="fil0" d="M4165.23 1920.64l-0.1 237c-48.92,12.18 -178.4,4.27 -236.89,4.27l3.01 -245.33c-13.74,7.49 -8.95,1.46 -13,16.55 0,46.84 -9.79,205.15 6.34,233.14 1.35,0.94 3.54,0.62 4.37,2.6l216.7 5.41c53.7,-5.1 29.66,-72.02 31.33,-194.53 0.94,-77.34 2.71,-48.81 -11.76,-59.12l-0.01 0z"/>
   </g>
  </g>
  <path class="fil1" d="M4351.17 4046.97c0,-319.3 -51.14,-585.72 -186.73,-850.08 -88.61,-172.79 -183.29,-299.51 -304.9,-451.45l-347.73 -332.14c-32.63,-26.8 -63.18,-48.15 -96.68,-73.29 -34.77,-26.08 -61.88,-46.19 -99.06,-70.92 -531.66,-353.45 -1092.63,-546.97 -1730.36,-640.69 -96.95,-14.24 -208.44,-28.98 -310.94,-28.98l0 -790.34 -1274.76 1270.53 0 4.23 1272.64 1276.87 2.13 -800.96 278.11 27.81c441.16,55.68 794.13,164.08 1196.95,332.76 145.78,61.05 270.33,129.68 402.58,209.3 32,19.27 62.96,35.31 95.69,57.28l266.64 192.28c88.44,69.93 251.45,219.83 315.52,296.36 172.37,205.88 251.45,318.39 362.29,555.53 23.49,50.26 77.28,174.03 82.13,232.31 26.7,-19.56 12.03,-4.02 32.37,-86.6 9.47,-38.44 14.06,-64.02 21.05,-106.44 11.1,-67.26 23.07,-139.6 23.07,-223.38z"/>
 </g>
</svg>
